<svg width="24" height="24" viewBox="0 0 24 24" fill="none" xmlns="http://www.w3.org/2000/svg">
    <path d="M17.0014 3.096L17.1169 3.3255L17.9809 5.625C18.0484 5.805 18.1909 5.949 18.3724 6.0165L20.5924 6.8505C21.5674 7.215 22.0909 8.256 21.8314 9.2415L21.7684 9.4365L20.7364 11.721C20.6971 11.8082 20.6768 11.9028 20.6768 11.9985C20.6768 12.0942 20.6971 12.1888 20.7364 12.276L21.7174 14.436C21.9227 14.8888 21.9529 15.4015 21.8022 15.8753C21.6515 16.349 21.3306 16.75 20.9014 17.001L20.6719 17.1165L18.3724 17.9805C18.2835 18.0146 18.2027 18.067 18.1355 18.1345C18.0683 18.202 18.0161 18.2829 17.9824 18.372L17.1484 20.592C16.9738 21.0581 16.6325 21.4428 16.1905 21.6717C15.7485 21.9006 15.2374 21.9574 14.7559 21.831L14.5609 21.768L12.2764 20.736C12.1892 20.6967 12.0946 20.6763 11.9989 20.6763C11.9032 20.6763 11.8087 20.6967 11.7214 20.736L9.56293 21.717C9.11017 21.9223 8.5974 21.9524 8.12368 21.8017C7.64995 21.651 7.24888 21.3301 6.99793 20.901L6.88243 20.6715L6.01693 18.372C5.98288 18.2831 5.9304 18.2023 5.86292 18.1351C5.79545 18.0679 5.71451 18.0157 5.62543 17.982L3.40543 17.148C2.93934 16.9734 2.55461 16.6321 2.32573 16.1901C2.09684 15.7481 2.04008 15.2369 2.16643 14.7555L2.22943 14.5605L3.26293 12.276C3.30227 12.1888 3.32261 12.0942 3.32261 11.9985C3.32261 11.9028 3.30227 11.8082 3.26293 11.721L2.28043 9.5625C2.07505 9.10991 2.04463 8.59727 2.19505 8.12357C2.34548 7.64987 2.66607 7.24869 3.09493 6.9975L3.32443 6.882L5.62543 6.015C5.71466 5.98113 5.79569 5.92872 5.86317 5.86124C5.93065 5.79376 5.98306 5.71273 6.01693 5.6235L6.85093 3.4035C7.02553 2.93774 7.36662 2.55325 7.80827 2.32439C8.24991 2.09554 8.76072 2.03857 9.24193 2.1645L9.43693 2.2275L11.7214 3.261C11.8087 3.30034 11.9032 3.32068 11.9989 3.32068C12.0946 3.32068 12.1892 3.30034 12.2764 3.261L14.4364 2.28C14.889 2.07462 15.4017 2.0442 15.8754 2.19463C16.3491 2.34505 16.7502 2.66714 17.0014 3.096ZM15.2464 8.556L10.4659 14.016L8.72293 12.273C8.5963 12.1518 8.42725 12.0851 8.25199 12.087C8.07673 12.0889 7.9092 12.1594 7.78526 12.2833C7.66133 12.4073 7.59085 12.5748 7.58892 12.7501C7.58699 12.9253 7.65376 13.0944 7.77493 13.221L10.0249 15.471C10.0899 15.5358 10.1674 15.5865 10.2527 15.6202C10.3381 15.6538 10.4294 15.6695 10.5211 15.6664C10.6128 15.6633 10.7028 15.6415 10.7857 15.6022C10.8686 15.5629 10.9425 15.507 11.0029 15.438L16.2529 9.438C16.3598 9.30306 16.4107 9.13216 16.3951 8.96072C16.3794 8.78928 16.2984 8.63042 16.1689 8.51705C16.0393 8.40369 15.8711 8.3445 15.6991 8.35175C15.5271 8.359 15.366 8.43214 15.2464 8.556Z"
          fill="currentColor"/>
</svg>
