<svg width="24" height="24" viewBox="0 0 24 24" fill="none" xmlns="http://www.w3.org/2000/svg">
    <path d="M12.005 4.88357C11.2315 3.91928 9.33291 3.06514 7.22348 3.06514C4.43133 3.06514 2.18133 4.50171 1.62891 5.84785V19.8801C1.62891 20.6434 2.13119 20.9344 2.67333 20.9344C3.11562 20.9344 3.36633 20.8041 3.63762 20.5933C4.21019 20.1009 5.36562 19.4379 7.22391 19.4379C9.07191 19.4379 10.3675 20.0807 10.8698 20.5329C11.1312 20.7437 11.4526 20.9349 12.005 20.9349C12.5472 20.9349 12.8588 20.724 13.13 20.5329C13.6623 20.1111 14.9279 19.4383 16.7763 19.4383C18.6342 19.4383 19.7995 20.1111 20.3622 20.5933C20.6335 20.8041 20.8846 20.9349 21.3265 20.9349C21.869 20.9349 22.3709 20.6434 22.3709 19.8801V5.84785C21.8185 4.50171 19.5685 3.06514 16.7763 3.06514C14.6669 3.06514 12.7683 3.91928 12.005 4.88357ZM3.24591 6.33C3.47733 5.70685 4.93362 4.58185 7.22391 4.58185C9.50391 4.58185 10.9906 5.71714 11.1912 6.33V19.0363C10.2372 18.3231 8.78048 17.9211 7.22391 17.9211C5.65662 17.9211 4.20033 18.3231 3.24591 19.0766V6.33ZM20.7539 6.33V19.0766C19.7995 18.3231 18.3432 17.9211 16.7763 17.9211C15.2193 17.9211 13.7626 18.3231 12.8086 19.0363V6.33C13.0092 5.71714 14.4959 4.58185 16.7763 4.58185C19.0662 4.58185 20.5233 5.70685 20.7539 6.33Z"
          fill="currentColor"/>
</svg>
