<svg width="40" height="40" viewBox="0 0 40 40" fill="none" xmlns="http://www.w3.org/2000/svg">
<g clip-path="url(#clip0_190_5763)">
<path d="M20 40C31.0457 40 40 31.0457 40 20C40 8.95431 31.0457 0 20 0C8.95431 0 0 8.95431 0 20C0 31.0457 8.95431 40 20 40Z" fill="#63845C"/>
<path fill-rule="evenodd" clip-rule="evenodd" d="M9.05173 19.7889C14.8821 17.2486 18.77 15.574 20.7153 14.7649C26.2695 12.4547 27.4236 12.0534 28.1758 12.0401C28.3413 12.0372 28.7112 12.0782 28.9509 12.2726C29.1532 12.4368 29.2089 12.6586 29.2355 12.8143C29.2621 12.9699 29.2953 13.3245 29.2689 13.6016C28.968 16.7641 27.6656 24.4386 27.003 27.9806C26.7227 29.4794 26.1706 29.9819 25.6362 30.0311C24.4748 30.1379 23.5928 29.2635 22.4679 28.5261C20.7077 27.3722 19.7132 26.6539 18.0046 25.528C16.03 24.2267 17.31 23.5115 18.4354 22.3427C18.7299 22.0368 23.8472 17.3822 23.9462 16.96C23.9586 16.9072 23.9701 16.7103 23.8532 16.6064C23.7362 16.5025 23.5636 16.538 23.4391 16.5663C23.2625 16.6063 20.4505 18.465 15.003 22.1422C14.2048 22.6903 13.4818 22.9574 12.8341 22.9434C12.12 22.928 10.7463 22.5396 9.72514 22.2077C8.47264 21.8005 7.47717 21.5853 7.56386 20.8938C7.60901 20.5337 8.10496 20.1654 9.05173 19.7889Z" fill="white"/>
</g>
<defs>
<clipPath id="clip0_190_5763">
<rect width="40" height="40" fill="white"/>
</clipPath>
</defs>
</svg>
