<svg width="45" height="45" viewBox="0 0 45 45" fill="none" xmlns="http://www.w3.org/2000/svg">
<path d="M22.5 3.125C26.644 3.125 30.6186 4.77092 33.5488 7.70117C36.4791 10.6314 38.125 14.606 38.125 18.75C38.125 24.8983 33.5556 31.6528 23.832 39.1475L22.875 39.875C22.7668 39.9561 22.6352 40 22.5 40C22.3985 40 22.299 39.9754 22.21 39.9287L22.125 39.875C11.7439 32.0892 6.875 25.0966 6.875 18.75C6.875 14.606 8.52092 10.6314 11.4512 7.70117C14.3814 4.77092 18.356 3.125 22.5 3.125ZM22.5 11.875C20.6766 11.875 18.928 12.5994 17.6387 13.8887C16.3494 15.178 15.625 16.9266 15.625 18.75C15.625 20.5734 16.3494 22.322 17.6387 23.6113C18.928 24.9006 20.6766 25.625 22.5 25.625C24.3234 25.625 26.072 24.9006 27.3613 23.6113C28.6506 22.322 29.375 20.5734 29.375 18.75C29.375 16.9266 28.6506 15.178 27.3613 13.8887C26.072 12.5994 24.3234 11.875 22.5 11.875Z" stroke="#63845C" stroke-width="2.5"/>
</svg>
