<svg width="45" height="45" viewBox="0 0 45 45" fill="none" xmlns="http://www.w3.org/2000/svg">
<path d="M27.668 29.0315L30.3374 26.361C30.6969 26.0058 31.1518 25.7626 31.6468 25.6611C32.1418 25.5595 32.6557 25.6038 33.126 25.7888L36.3793 27.0882C36.8545 27.2812 37.2621 27.6106 37.5505 28.035C37.8389 28.4593 37.9953 28.9595 38 29.4726V35.4335C37.9972 35.7825 37.9239 36.1274 37.7844 36.4473C37.6449 36.7673 37.4421 37.0557 37.1882 37.2951C36.9344 37.5346 36.6347 37.7202 36.3073 37.8408C35.9798 37.9614 35.6314 38.0144 35.2829 37.9967C12.4858 36.578 7.88581 17.2647 7.01587 9.8732C6.97549 9.51022 7.01238 9.14281 7.12413 8.79512C7.23588 8.44744 7.41995 8.12736 7.66423 7.85596C7.90851 7.58455 8.20747 7.36796 8.54143 7.22044C8.87539 7.07292 9.23679 6.99781 9.60185 7.00005H15.3578C15.8714 7.00157 16.3728 7.15678 16.7976 7.44572C17.2223 7.73466 17.5509 8.14411 17.7411 8.62141L19.0401 11.8761C19.2311 12.3447 19.2798 12.8592 19.1802 13.3553C19.0806 13.8515 18.837 14.3073 18.48 14.6658L15.8106 17.3362C15.8106 17.3362 17.3479 27.7439 27.668 29.0315Z" stroke="#63845C" stroke-width="2.5"/>
</svg>
