<svg width="45" height="45" viewBox="0 0 45 45" fill="none" xmlns="http://www.w3.org/2000/svg">
<rect width="45" height="45" rx="22.5" fill="#63845C"/>
<path d="M12.7138 22.4999C12.7138 20.4337 14.3934 18.7541 16.4596 18.7541H21.293V16.4583H16.4596C14.8573 16.4583 13.3206 17.0948 12.1875 18.2278C11.0545 19.3608 10.418 20.8976 10.418 22.4999C10.418 24.1023 11.0545 25.639 12.1875 26.772C13.3206 27.9051 14.8573 28.5416 16.4596 28.5416H21.293V26.2458H16.4596C14.3934 26.2458 12.7138 24.5662 12.7138 22.4999ZM17.668 23.7083H27.3346V21.2916H17.668V23.7083ZM28.543 16.4583H23.7096V18.7541H28.543C30.6092 18.7541 32.2888 20.4337 32.2888 22.4999C32.2888 24.5662 30.6092 26.2458 28.543 26.2458H23.7096V28.5416H28.543C30.1453 28.5416 31.682 27.9051 32.8151 26.772C33.9481 25.639 34.5846 24.1023 34.5846 22.4999C34.5846 20.8976 33.9481 19.3608 32.8151 18.2278C31.682 17.0948 30.1453 16.4583 28.543 16.4583Z" fill="white"/>
</svg>
