<svg width="40" height="40" viewBox="0 0 40 40" fill="none" xmlns="http://www.w3.org/2000/svg">
<g clip-path="url(#clip0_190_5764)">
<path d="M40 20C40 8.95434 31.0457 2.67029e-05 20 2.67029e-05C8.95431 2.67029e-05 0 8.95434 0 20C0 29.3796 6.45719 37.2498 15.1685 39.411V26.1117H11.0443V20H15.1685V17.3665C15.1685 10.5591 18.2491 7.40394 24.9323 7.40394C26.1993 7.40394 28.3857 7.65234 29.2801 7.90082V13.4411C28.808 13.3915 27.9881 13.3666 26.9695 13.3666C23.6901 13.3666 22.4229 14.6088 22.4229 17.8386V20H28.9557L27.8334 26.1117H22.4229V39.8535C32.3258 38.6574 40 30.2254 40 20Z" fill="#63845C"/>
<path d="M27.836 26.1117L28.9583 20H22.4256V17.8385C22.4256 14.6087 23.6926 13.3666 26.9721 13.3666C27.9907 13.3666 28.8105 13.3914 29.2826 13.4411V7.90083C28.3882 7.65234 26.2019 7.40386 24.9349 7.40386C18.2518 7.40386 15.171 10.5591 15.171 17.3665V20H11.0469V26.1117H15.171V39.411C16.7185 39.7949 18.3365 40 20.0025 40C20.8229 40 21.6312 39.9494 22.4256 39.8535V26.1117H27.836Z" fill="white"/>
</g>
<defs>
<clipPath id="clip0_190_5764">
<rect width="40" height="40" fill="white"/>
</clipPath>
</defs>
</svg>
