<svg width="45" height="45" viewBox="0 0 45 45" fill="none" xmlns="http://www.w3.org/2000/svg">
<path d="M40.7812 12.6562V32.3438C40.7812 33.0897 40.4849 33.805 39.9575 34.3325C39.43 34.8599 38.7147 35.1562 37.9688 35.1562H7.03125C6.28533 35.1562 5.56996 34.8599 5.04251 34.3325C4.51507 33.805 4.21875 33.0897 4.21875 32.3438V12.6562M40.7812 12.6562C40.7812 11.9103 40.4849 11.195 39.9575 10.6675C39.43 10.1401 38.7147 9.84375 37.9688 9.84375H7.03125C6.28533 9.84375 5.56996 10.1401 5.04251 10.6675C4.51507 11.195 4.21875 11.9103 4.21875 12.6562M40.7812 12.6562L24.1003 24.2044C23.6301 24.5297 23.0718 24.7041 22.5 24.7041C21.9282 24.7041 21.3699 24.5297 20.8997 24.2044L4.21875 12.6562" stroke="#63845C" stroke-width="2.5" stroke-linecap="round" stroke-linejoin="round"/>
</svg>
