<svg width="24" height="24" viewBox="0 0 24 24" fill="none" xmlns="http://www.w3.org/2000/svg">
    <path stroke="currentColor" d="M11.688 3.063C12.0703 3.2368 12.4181 3.47798 12.715 3.775L18.683 9.745C18.983 10.045 19.223 10.392 19.394 10.771M11.688 3.063C11.2332 2.85654 10.7395 2.74982 10.24 2.75H7.79199C6.86373 2.75 5.9735 3.11875 5.31712 3.77513C4.66074 4.4315 4.29199 5.32174 4.29199 6.25V17.75C4.29199 18.6783 4.66074 19.5685 5.31712 20.2249C5.9735 20.8813 6.86373 21.25 7.79199 21.25H16.208C17.1363 21.25 18.0265 20.8813 18.6829 20.2249C19.3392 19.5685 19.708 18.6783 19.708 17.75V12.22C19.708 11.715 19.599 11.222 19.394 10.771M11.688 3.063V8.77C11.688 9.30043 11.8987 9.80914 12.2738 10.1842C12.6489 10.5593 13.1576 10.77 13.688 10.77L19.394 10.771"
          stroke-width="1.5" stroke-linecap="round" stroke-linejoin="round"/>
</svg>
