<svg width="18" height="18" viewBox="0 0 18 18" fill="none" xmlns="http://www.w3.org/2000/svg">
    <g clip-path="url(#clip0_761_12751)">
        <path d="M1.5 9C1.5 13.1422 4.85775 16.5 9 16.5C13.1422 16.5 16.5 13.1422 16.5 9C16.5 4.85775 13.1422 1.5 9 1.5C4.85775 1.5 1.5 4.85775 1.5 9Z"
              stroke="currentColor" stroke-width="1.5" stroke-linecap="round" stroke-linejoin="round"/>
        <path d="M9.75016 1.53748C9.75016 1.53748 12.0002 4.49998 12.0002 8.99998C12.0002 13.5 9.75016 16.4625 9.75016 16.4625M8.25016 16.4625C8.25016 16.4625 6.00016 13.5 6.00016 8.99998C6.00016 4.49998 8.25016 1.53748 8.25016 1.53748M1.97266 11.625H16.0277M1.97266 6.37498H16.0277"
              stroke="currentColor" stroke-width="1.5" stroke-linecap="round" stroke-linejoin="round"/>
    </g>
    <defs>
        <clipPath id="clip0_761_12751">
            <rect width="18" height="18" fill="white"/>
        </clipPath>
    </defs>
</svg>
