<svg width="24" height="24" viewBox="0 0 24 24" fill="none" xmlns="http://www.w3.org/2000/svg">
    <path fill-rule="evenodd" clip-rule="evenodd"
          d="M12 2.75C10.3424 2.75 8.7527 3.40848 7.5806 4.58058C6.4085 5.75268 5.75002 7.34239 5.75002 9C5.75002 10.6576 6.4085 12.2473 7.5806 13.4194C8.7527 14.5915 10.3424 15.25 12 15.25C13.6576 15.25 15.2473 14.5915 16.4194 13.4194C17.5915 12.2473 18.25 10.6576 18.25 9C18.25 7.34239 17.5915 5.75268 16.4194 4.58058C15.2473 3.40848 13.6576 2.75 12 2.75ZM4.25002 9C4.25082 7.86761 4.49977 6.74916 4.97934 5.72333C5.45891 4.69751 6.15746 3.78925 7.02583 3.06245C7.8942 2.33565 8.91128 1.80797 10.0055 1.51655C11.0998 1.22512 12.2446 1.17704 13.3594 1.37567C14.4743 1.57429 15.532 2.01481 16.4583 2.66623C17.3845 3.31765 18.1568 4.16413 18.7207 5.14612C19.2846 6.12811 19.6265 7.22174 19.7222 8.35007C19.818 9.4784 19.6654 10.614 19.275 11.677L21.563 14.045C21.82 14.312 22.034 14.534 22.194 14.719C22.352 14.901 22.514 15.109 22.609 15.351C22.943 16.196 22.675 17.196 21.87 17.688C21.64 17.83 21.376 17.888 21.15 17.926C20.918 17.966 20.624 17.996 20.277 18.033L20.253 18.035C19.794 18.084 19.707 18.099 19.648 18.122C19.5554 18.1582 19.4718 18.2144 19.4032 18.2864C19.3346 18.3585 19.2827 18.4447 19.251 18.539C19.225 18.609 19.21 18.712 19.163 19.183L19.161 19.205C19.125 19.566 19.095 19.869 19.058 20.107C19.022 20.337 18.968 20.601 18.835 20.832C18.365 21.654 17.376 21.962 16.518 21.599C16.277 21.497 16.072 21.326 15.898 21.164C15.718 20.998 15.505 20.776 15.248 20.509L15.228 20.489L12 17.09L8.76801 20.495L8.75302 20.51C8.49602 20.777 8.28201 20.999 8.10301 21.165C7.92801 21.327 7.72301 21.498 7.48302 21.6C6.62301 21.963 5.63502 21.655 5.16502 20.833C5.03302 20.602 4.97802 20.339 4.94202 20.107C4.90502 19.87 4.87502 19.567 4.84002 19.207L4.83702 19.184C4.79102 18.713 4.77502 18.611 4.75002 18.54C4.71837 18.4457 4.66642 18.3595 4.59783 18.2874C4.52923 18.2154 4.44566 18.1592 4.35302 18.123C4.29302 18.1 4.20602 18.085 3.74702 18.036L3.72402 18.034C3.37702 17.997 3.08302 17.966 2.85102 17.927C2.62502 17.89 2.36102 17.831 2.13002 17.689C1.32602 17.197 1.05802 16.197 1.39102 15.352C1.48702 15.11 1.64802 14.902 1.80602 14.72C1.96602 14.535 2.18002 14.313 2.43802 14.046L4.72502 11.678C4.40903 10.8206 4.24819 9.91378 4.25002 9ZM5.42802 13.109L3.53202 15.072C3.25602 15.358 3.07002 15.55 2.94002 15.701C2.88179 15.7621 2.83017 15.8291 2.78602 15.901C2.69602 16.131 2.78602 16.325 2.90502 16.404C2.91402 16.407 2.96502 16.424 3.09902 16.447C3.27902 16.477 3.52902 16.504 3.90502 16.544L3.98002 16.552C4.32002 16.587 4.62102 16.619 4.89002 16.722C5.48902 16.952 5.94702 17.432 6.16202 18.034C6.25802 18.303 6.28802 18.607 6.32202 18.961L6.33002 19.036C6.36802 19.425 6.39401 19.685 6.42402 19.876C6.45002 20.038 6.47002 20.09 6.47102 20.093C6.55102 20.228 6.71502 20.294 6.89602 20.218C6.89602 20.218 6.94601 20.191 7.08202 20.064C7.22702 19.93 7.41201 19.739 7.68702 19.454L7.68902 19.452L10.409 16.586C9.3876 16.3712 8.42001 15.9526 7.56416 15.3551C6.7083 14.7577 5.98176 13.9938 5.42802 13.109ZM13.591 16.587C14.6127 16.3722 15.5805 15.9535 16.4366 15.3559C17.2926 14.7583 18.0193 13.994 18.573 13.109L20.469 15.072C20.745 15.358 20.93 15.55 21.06 15.701C21.183 15.841 21.211 15.896 21.214 15.901C21.304 16.131 21.214 16.325 21.096 16.404C21.086 16.407 21.036 16.424 20.902 16.447C20.721 16.477 20.472 16.504 20.095 16.544L20.02 16.552C19.681 16.587 19.379 16.619 19.11 16.722C18.512 16.952 18.053 17.432 17.838 18.034C17.742 18.303 17.712 18.607 17.678 18.961L17.67 19.036C17.632 19.425 17.606 19.685 17.576 19.876C17.551 20.038 17.53 20.09 17.53 20.093C17.45 20.228 17.285 20.295 17.103 20.218H17.105C17.105 20.218 17.055 20.191 16.918 20.064C16.7112 19.8658 16.5095 19.6624 16.313 19.454L16.311 19.452L13.591 16.587ZM12.001 7.034C11.943 7.134 11.8763 7.252 11.801 7.388L11.703 7.564L11.681 7.604C11.602 7.748 11.472 7.986 11.255 8.151C11.034 8.319 10.767 8.377 10.612 8.411L10.569 8.42L10.378 8.463C10.202 8.503 10.06 8.535 9.93801 8.566C10.017 8.663 10.12 8.785 10.254 8.942L10.384 9.094L10.414 9.128C10.522 9.253 10.697 9.453 10.777 9.713C10.857 9.969 10.829 10.233 10.812 10.399L10.807 10.446L10.787 10.649C10.7718 10.8022 10.7581 10.9555 10.746 11.109C10.85 11.063 10.968 11.009 11.109 10.944L11.288 10.862L11.328 10.842C11.472 10.775 11.722 10.658 12 10.658C12.279 10.658 12.528 10.775 12.672 10.843L12.712 10.862L12.892 10.944C13.032 11.009 13.15 11.064 13.255 11.109L13.213 10.649L13.193 10.446L13.188 10.399C13.171 10.232 13.144 9.969 13.223 9.713C13.303 9.453 13.478 9.253 13.586 9.128L13.616 9.094L13.746 8.942C13.88 8.785 13.983 8.663 14.063 8.566C13.941 8.536 13.798 8.503 13.623 8.463L13.432 8.42L13.389 8.41C13.233 8.377 12.967 8.319 12.745 8.15C12.528 7.986 12.398 7.748 12.32 7.605L12.297 7.564L12.199 7.388C12.1243 7.252 12.058 7.134 12 7.034M11.013 5.8C11.185 5.575 11.498 5.25 11.999 5.25C12.501 5.25 12.814 5.575 12.986 5.8C13.15 6.014 13.316 6.311 13.486 6.616L13.508 6.657L13.607 6.834L13.663 6.934L13.762 6.957L13.952 7L14 7.01C14.328 7.085 14.653 7.158 14.903 7.257C15.18 7.366 15.553 7.577 15.698 8.042C15.84 8.497 15.661 8.883 15.505 9.132C15.36 9.362 15.141 9.618 14.915 9.881L14.885 9.916L14.755 10.069L14.673 10.166L14.685 10.301L14.705 10.504L14.709 10.55C14.744 10.902 14.777 11.242 14.764 11.514C14.752 11.8 14.684 12.232 14.296 12.525C13.896 12.829 13.456 12.763 13.176 12.682C12.918 12.609 12.614 12.468 12.306 12.327L12.263 12.307L12.084 12.224L11.999 12.185L11.914 12.225L11.736 12.307L11.692 12.327C11.385 12.468 11.08 12.609 10.822 12.682C10.542 12.762 10.102 12.829 9.70201 12.525C9.31501 12.232 9.24702 11.8 9.23402 11.515C9.22202 11.242 9.25401 10.902 9.28901 10.55L9.29401 10.504L9.31402 10.301L9.32602 10.166L9.24302 10.069L9.11302 9.916L9.08302 9.881C8.85802 9.618 8.63802 9.361 8.49302 9.131C8.33702 8.883 8.15902 8.497 8.30002 8.041C8.44502 7.578 8.81902 7.366 9.09502 7.257C9.34502 7.158 9.67101 7.085 9.99901 7.011L10.045 7.001L10.236 6.957L10.336 6.934L10.392 6.834L10.49 6.657L10.513 6.616C10.683 6.311 10.848 6.014 11.013 5.8Z"
          fill="currentColor"/>
</svg>
