<svg width="24" height="24" viewBox="0 0 24 24" fill="none" xmlns="http://www.w3.org/2000/svg">
    <path d="M11.9996 2.39999C10.7266 2.39999 9.50567 2.90571 8.6055 3.80588C7.70532 4.70606 7.19961 5.92695 7.19961 7.19999C7.19961 8.47303 7.70532 9.69393 8.6055 10.5941C9.50567 11.4943 10.7266 12 11.9996 12C13.2726 12 14.4935 11.4943 15.3937 10.5941C16.2939 9.69393 16.7996 8.47303 16.7996 7.19999C16.7996 5.92695 16.2939 4.70606 15.3937 3.80588C14.4935 2.90571 13.2726 2.39999 11.9996 2.39999ZM6.01041 13.2C5.69433 13.1986 5.38108 13.2596 5.08865 13.3796C4.79622 13.4995 4.53037 13.6761 4.30637 13.8991C4.08236 14.1221 3.90461 14.3872 3.78333 14.6791C3.66204 14.9709 3.59961 15.2839 3.59961 15.6C3.59961 17.6292 4.59921 19.1592 6.16161 20.1564C7.70001 21.1368 9.77361 21.6 11.9996 21.6C14.2256 21.6 16.2992 21.1368 17.8376 20.1564C19.4 19.1604 20.3996 17.628 20.3996 15.6C20.3996 14.9635 20.1468 14.353 19.6967 13.9029C19.2466 13.4529 18.6361 13.2 17.9996 13.2H6.01041Z"
          fill="currentColor"/>
</svg>
