<svg width="24" height="24" viewBox="0 0 24 24" fill="none" xmlns="http://www.w3.org/2000/svg">
    <path d="M17.6255 4.49999C17.2362 4.49945 16.8517 4.58627 16.5005 4.75406V4.12499C16.5007 3.49935 16.2775 2.8942 15.871 2.41858C15.4645 1.94297 14.9016 1.62817 14.2835 1.53091C13.6655 1.43365 13.033 1.56033 12.5001 1.88813C11.9672 2.21592 11.5689 2.72327 11.377 3.31874C10.9773 3.10192 10.5281 2.99267 10.0734 3.00169C9.6187 3.01071 9.17417 3.1377 8.78334 3.37021C8.39251 3.60273 8.06879 3.93279 7.8439 4.32805C7.61901 4.72332 7.50066 5.17023 7.50046 5.625V11.625L7.14233 11.0503C6.79449 10.45 6.22314 10.0118 5.55318 9.83158C4.88322 9.6513 4.16914 9.74358 3.56702 10.0883C2.9649 10.4329 2.52372 11.0019 2.3399 11.6709C2.15609 12.3399 2.2446 13.0545 2.58608 13.6584C4.08608 16.8244 5.29827 19.0697 6.68483 20.4731C8.08546 21.8944 9.67546 22.5 12.0005 22.5C14.1877 22.4975 16.2847 21.6275 17.8313 20.0809C19.378 18.5342 20.248 16.4373 20.2505 14.25V7.125C20.2505 6.4288 19.9739 5.76112 19.4816 5.26884C18.9893 4.77656 18.3217 4.49999 17.6255 4.49999ZM18.7505 14.25C18.7485 16.0396 18.0367 17.7553 16.7712 19.0208C15.5058 20.2862 13.7901 20.998 12.0005 21C10.0898 21 8.85889 20.5425 7.75077 19.4203C6.51046 18.1631 5.36858 16.0312 3.92858 12.9919C3.9202 12.9732 3.91081 12.9551 3.90046 12.9375C3.75127 12.679 3.71087 12.3719 3.78814 12.0836C3.86541 11.7954 4.05403 11.5496 4.31249 11.4005C4.57095 11.2513 4.87809 11.2109 5.16634 11.2881C5.45459 11.3654 5.70034 11.554 5.84952 11.8125C5.85341 11.82 5.85779 11.8272 5.86264 11.8341L7.61296 14.6466C7.69894 14.7853 7.82784 14.8922 7.98009 14.951C8.13234 15.0099 8.29962 15.0175 8.45656 14.9726C8.6135 14.9277 8.75153 14.8329 8.84969 14.7025C8.94784 14.5721 9.00078 14.4132 9.00046 14.25V5.625C9.00046 5.32663 9.11898 5.04048 9.32996 4.8295C9.54094 4.61852 9.82709 4.49999 10.1255 4.49999C10.4238 4.49999 10.71 4.61852 10.921 4.8295C11.1319 5.04048 11.2505 5.32663 11.2505 5.625V11.25C11.2505 11.4489 11.3295 11.6397 11.4701 11.7803C11.6108 11.921 11.8015 12 12.0005 12C12.1994 12 12.3901 11.921 12.5308 11.7803C12.6714 11.6397 12.7505 11.4489 12.7505 11.25V4.12499C12.7505 3.82663 12.869 3.54048 13.08 3.3295C13.2909 3.11852 13.5771 2.99999 13.8755 2.99999C14.1738 2.99999 14.46 3.11852 14.671 3.3295C14.8819 3.54048 15.0005 3.82663 15.0005 4.12499V11.25C15.0005 11.4489 15.0795 11.6397 15.2201 11.7803C15.3608 11.921 15.5515 12 15.7505 12C15.9494 12 16.1401 11.921 16.2808 11.7803C16.4214 11.6397 16.5005 11.4489 16.5005 11.25V7.125C16.5005 6.82663 16.619 6.54048 16.83 6.3295C17.0409 6.11852 17.3271 6 17.6255 6C17.9238 5.99999 18.21 6.11852 18.421 6.3295C18.6319 6.54048 18.7505 6.82663 18.7505 7.125V14.25Z"
          fill="currentColor"/>
</svg>
