<svg width="24" height="24" viewBox="0 0 24 24" fill="none" xmlns="http://www.w3.org/2000/svg">
<path stroke="currentColor" d="M20 13C20 18 16.5 20.5 12.34 21.95C12.1222 22.0238 11.8855 22.0203 11.67 21.94C7.5 20.5 4 18 4 13V6.00001C4 5.73479 4.10536 5.48044 4.29289 5.2929C4.48043 5.10536 4.73478 5.00001 5 5.00001C7 5.00001 9.5 3.80001 11.24 2.28001C11.4519 2.09901 11.7214 1.99956 12 1.99956C12.2786 1.99956 12.5481 2.09901 12.76 2.28001C14.51 3.81001 17 5.00001 19 5.00001C19.2652 5.00001 19.5196 5.10536 19.7071 5.2929C19.8946 5.48044 20 5.73479 20 6.00001V13Z"  stroke-width="2" stroke-linecap="round" stroke-linejoin="round"/>
</svg>
