<svg viewBox="0 0 32 32" fill="none" xmlns="http://www.w3.org/2000/svg">
    <path fill-rule="evenodd" clip-rule="evenodd"
          d="M4.61866 4.61867C2.66666 6.57333 2.66666 9.71467 2.66666 16C2.66666 22.2853 2.66666 25.428 4.61866 27.38C6.57332 29.3333 9.71466 29.3333 16 29.3333C22.2853 29.3333 25.428 29.3333 27.38 27.38C29.3333 25.4293 29.3333 22.2853 29.3333 16C29.3333 9.71467 29.3333 6.572 27.38 4.61867C25.4293 2.66667 22.2853 2.66667 16 2.66667C9.71466 2.66667 6.57199 2.66667 4.61866 4.61867ZM17.984 8.59467C18.2399 8.66341 18.4581 8.83094 18.5906 9.06044C18.7231 9.28994 18.7591 9.56265 18.6907 9.81867L15.24 22.6987C15.2059 22.8255 15.1472 22.9444 15.0672 23.0486C14.9872 23.1528 14.8875 23.2402 14.7737 23.3058C14.5439 23.4383 14.2709 23.4741 14.0147 23.4053C13.7585 23.3366 13.5401 23.1688 13.4075 22.939C13.275 22.7092 13.2392 22.4362 13.308 22.18L16.76 9.30133C16.8287 9.0454 16.9963 8.82722 17.2258 8.69472C17.4553 8.56222 17.728 8.52623 17.984 8.59467ZM19.96 11.2933C20.1475 11.1061 20.4017 11.0009 20.6667 11.0009C20.9317 11.0009 21.1858 11.1061 21.3733 11.2933L21.652 11.5707C22.4987 12.4173 23.2053 13.124 23.6907 13.76C24.2027 14.432 24.5627 15.1413 24.5627 16C24.5627 16.8587 24.2027 17.568 23.6907 18.24C23.2053 18.876 22.4987 19.5827 21.6507 20.4293L21.3733 20.7067C21.2818 20.8049 21.1714 20.8837 21.0487 20.9384C20.926 20.993 20.7936 21.0224 20.6594 21.0248C20.5251 21.0272 20.3917 21.0025 20.2672 20.9522C20.1427 20.9019 20.0296 20.827 19.9346 20.7321C19.8396 20.6371 19.7648 20.524 19.7145 20.3995C19.6642 20.2749 19.6395 20.1416 19.6419 20.0073C19.6442 19.873 19.6736 19.7406 19.7283 19.618C19.7829 19.4953 19.8617 19.3849 19.96 19.2933L20.188 19.064C21.0973 18.1547 21.7067 17.544 22.1 17.0267C22.4773 16.5333 22.5627 16.2453 22.5627 16C22.5627 15.7547 22.4773 15.4667 22.1 14.9733C21.7067 14.4573 21.0973 13.8453 20.188 12.936L19.96 12.7067C19.7727 12.5192 19.6675 12.265 19.6675 12C19.6675 11.735 19.7727 11.4808 19.96 11.2933ZM10.6267 11.2933C10.8162 11.1167 11.067 11.0205 11.326 11.0251C11.5851 11.0297 11.8323 11.1346 12.0155 11.3178C12.1987 11.5011 12.3037 11.7482 12.3082 12.0073C12.3128 12.2664 12.2166 12.5171 12.04 12.7067L11.812 12.936C10.9027 13.8453 10.2947 14.456 9.89999 14.9733C9.52266 15.4667 9.43866 15.7547 9.43866 16C9.43866 16.2453 9.52266 16.5333 9.89999 17.0267C10.2947 17.5427 10.9027 18.1547 11.812 19.064L12.0413 19.2933C12.1368 19.3856 12.2129 19.496 12.2653 19.618C12.3176 19.7401 12.3451 19.8713 12.3462 20.0041C12.3473 20.1369 12.322 20.2685 12.2716 20.3914C12.2213 20.5143 12.147 20.6259 12.053 20.7197C11.9591 20.8136 11.8474 20.8878 11.7245 20.938C11.6016 20.9882 11.4699 21.0135 11.3371 21.0122C11.2043 21.011 11.0731 20.9834 10.9511 20.9309C10.8292 20.8785 10.7189 20.8022 10.6267 20.7067L10.3493 20.4293C9.50132 19.5827 8.79466 18.876 8.30932 18.24C7.79732 17.568 7.43866 16.8587 7.43866 16C7.43866 15.1413 7.79866 14.432 8.30932 13.76C8.79466 13.124 9.50132 12.4173 10.3493 11.5707L10.6267 11.2933Z"
          fill="#2563EB"/>
</svg>
